<svg width="200" height="42" viewBox="0 0 200 42" fill="none" xmlns="http://www.w3.org/2000/svg">
<path d="M10.2372 0.289581L0 28.0434H8.93953L15.5721 10.3819L24.5116 28.0434H33.4511L43.8325 0.289581H34.893L28.1164 17.8109L19.4651 0.289581H10.2372Z" fill="#BCBCBC"/>
<path d="M52.628 21.8759H71.9489L69.786 28.0434C69.786 28.0434 47.9028 27.7225 47.0046 28.0434C46.1066 28.3644 41.6589 26.1572 43.8325 21.8759L49.1674 6.59728C51.5785 2.11047 53.4719 0.665429 57.9628 0.289581H80.3118L78.0048 6.59728H57.9628L52.628 21.8759Z" fill="#BCBCBC"/>
<path d="M71.9489 10.9426H60.5583C59.6641 14.5205 60.2555 15.8834 63.0095 17.2503H69.7861L71.9489 10.9426Z" fill="#BCBCBC"/>
<path d="M96.079 0H87.2837L79.6417 21.4461C77.8556 27.2746 80.5093 28.1878 88.0046 28.0343H103.721C109.097 26.9451 110.678 25.2395 112.516 21.4461L120.591 0H111.651L103.721 21.4461H88.0046L96.079 0Z" fill="#BCBCBC"/>
<path fill-rule="evenodd" clip-rule="evenodd" d="M118.36 27.8581H126.867L129.606 21.6905L126.29 19.3076H137.104L142.727 27.8581H151.811L145.899 19.3076C151.565 19.5771 154.128 18.3432 157.29 13L159.741 6.69226C160.511 2.00117 159.29 0.706486 154.983 0.104233H128.597L118.36 27.8581ZM150.657 6.69226H130.471L134.364 8.79484L132.778 13H148.35L150.657 6.69226Z" fill="#BCBCBC"/>
<path fill-rule="evenodd" clip-rule="evenodd" d="M160.75 21.6905L166.662 6.69226C168.596 2.40004 170.496 0.893154 175.601 0.104233H194.057C199.685 0.423757 200.624 2.05584 199.68 6.69226L194.057 21.6905C191.615 25.9289 189.755 27.4467 185.118 27.8581H169.69H164.211C160.828 26.9637 160.031 25.633 160.75 21.6905ZM174.448 8.79484L169.69 21.6905H185.118L190.597 6.69226H170.987L174.448 8.79484Z" fill="#BCBCBC"/>
<path d="M23.33 35.779C23.186 35.719 23.027 35.671 22.853 35.635C22.685 35.599 22.463 35.581 22.187 35.581C21.881 35.581 21.638 35.659 21.458 35.815C21.278 35.965 21.188 36.136 21.188 36.328C21.188 36.52 21.272 36.694 21.44 36.85C21.608 37.006 21.935 37.141 22.421 37.255C22.853 37.351 23.186 37.474 23.42 37.624C23.66 37.774 23.828 37.945 23.924 38.137C24.02 38.323 24.068 38.53 24.068 38.758C24.068 38.98 24.011 39.193 23.897 39.397C23.789 39.595 23.609 39.76 23.357 39.892C23.111 40.018 22.781 40.081 22.367 40.081C21.779 40.081 21.236 39.943 20.738 39.667C20.66 39.619 20.621 39.553 20.621 39.469C20.621 39.415 20.642 39.364 20.684 39.316C20.726 39.268 20.78 39.244 20.846 39.244C20.882 39.244 20.918 39.253 20.954 39.271C21.38 39.511 21.851 39.631 22.367 39.631C22.775 39.631 23.084 39.547 23.294 39.379C23.51 39.205 23.618 38.998 23.618 38.758C23.618 38.506 23.516 38.296 23.312 38.128C23.114 37.96 22.787 37.819 22.331 37.705C21.905 37.597 21.575 37.474 21.341 37.336C21.113 37.198 20.954 37.042 20.864 36.868C20.78 36.694 20.738 36.502 20.738 36.292C20.738 36.1 20.792 35.917 20.9 35.743C21.014 35.563 21.179 35.416 21.395 35.302C21.611 35.188 21.875 35.131 22.187 35.131C22.517 35.131 22.781 35.158 22.979 35.212C23.183 35.26 23.396 35.329 23.618 35.419C23.714 35.455 23.762 35.524 23.762 35.626C23.762 35.686 23.738 35.74 23.69 35.788C23.648 35.83 23.597 35.851 23.537 35.851C23.525 35.851 23.507 35.848 23.483 35.842C23.459 35.83 23.408 35.809 23.33 35.779ZM31.1545 40.018C31.1005 40.018 31.0525 40 31.0105 39.964C30.9685 39.928 30.9415 39.88 30.9295 39.82C30.8875 39.478 30.8335 39.091 30.7675 38.659C30.7015 38.227 30.6295 37.78 30.5515 37.318C30.4735 36.856 30.3925 36.409 30.3085 35.977C30.1105 36.379 29.9065 36.799 29.6965 37.237C29.4925 37.669 29.2975 38.095 29.1115 38.515C28.9255 38.935 28.7575 39.328 28.6075 39.694C28.5655 39.796 28.4995 39.847 28.4095 39.847C28.3015 39.847 28.2295 39.805 28.1935 39.721C28.0195 39.349 27.8275 38.947 27.6175 38.515C27.4075 38.077 27.1975 37.639 26.9875 37.201C26.7835 36.763 26.5915 36.358 26.4115 35.986C26.3635 36.304 26.3125 36.64 26.2585 36.994C26.2105 37.348 26.1625 37.699 26.1145 38.047C26.0725 38.395 26.0305 38.722 25.9885 39.028C25.9525 39.334 25.9225 39.598 25.8985 39.82C25.8925 39.874 25.8655 39.922 25.8175 39.964C25.7755 40 25.7245 40.018 25.6645 40.018C25.6045 40.018 25.5535 39.997 25.5115 39.955C25.4695 39.907 25.4485 39.85 25.4485 39.784C25.4485 39.772 25.4575 39.685 25.4755 39.523C25.4995 39.325 25.5325 39.055 25.5745 38.713C25.6165 38.371 25.6645 37.999 25.7185 37.597C25.7725 37.189 25.8295 36.784 25.8895 36.382C25.9495 35.98 26.0065 35.617 26.0605 35.293C26.0725 35.239 26.0995 35.194 26.1415 35.158C26.1895 35.122 26.2405 35.104 26.2945 35.104C26.3665 35.104 26.4205 35.128 26.4565 35.176C26.5165 35.236 26.5645 35.308 26.6005 35.392C26.7685 35.728 26.9515 36.106 27.1495 36.526C27.3535 36.94 27.5635 37.366 27.7795 37.804C27.9955 38.242 28.1995 38.662 28.3915 39.064C28.5655 38.668 28.7515 38.248 28.9495 37.804C29.1535 37.354 29.3605 36.907 29.5705 36.463C29.7865 36.013 29.9965 35.596 30.2005 35.212C30.2485 35.134 30.3175 35.095 30.4075 35.095C30.4615 35.095 30.5125 35.113 30.5605 35.149C30.6085 35.179 30.6355 35.221 30.6415 35.275C30.7135 35.629 30.7825 36.007 30.8485 36.409C30.9205 36.805 30.9865 37.186 31.0465 37.552C31.1065 37.918 31.1545 38.239 31.1905 38.515C31.2325 38.785 31.2625 38.971 31.2805 39.073C31.3285 39.367 31.3555 39.556 31.3615 39.64C31.3735 39.724 31.3795 39.775 31.3795 39.793C31.3795 39.853 31.3585 39.907 31.3165 39.955C31.2745 39.997 31.2205 40.018 31.1545 40.018ZM36.7442 40C36.6422 40 36.5732 39.952 36.5372 39.856C36.4772 39.694 36.4052 39.514 36.3212 39.316C36.2372 39.118 36.1472 38.911 36.0512 38.695H33.5132C33.4292 38.911 33.3482 39.118 33.2702 39.316C33.1982 39.508 33.1322 39.685 33.0722 39.847C33.0542 39.895 33.0242 39.934 32.9822 39.964C32.9402 39.988 32.8952 40 32.8472 40C32.7932 40 32.7422 39.979 32.6942 39.937C32.6522 39.889 32.6312 39.832 32.6312 39.766C32.6312 39.748 32.6342 39.724 32.6402 39.694C32.6522 39.658 32.6792 39.589 32.7212 39.487C32.8232 39.217 32.9432 38.908 33.0812 38.56C33.2252 38.212 33.3782 37.849 33.5402 37.471C33.7022 37.093 33.8672 36.712 34.0352 36.328C34.2032 35.944 34.3652 35.581 34.5212 35.239C34.5632 35.149 34.6352 35.104 34.7372 35.104H34.7732C34.8812 35.104 34.9532 35.146 34.9892 35.23C35.1512 35.578 35.3222 35.953 35.5022 36.355C35.6882 36.757 35.8682 37.156 36.0422 37.552C36.2162 37.942 36.3752 38.308 36.5192 38.65C36.6632 38.986 36.7802 39.265 36.8702 39.487C36.9182 39.595 36.9452 39.667 36.9512 39.703C36.9632 39.739 36.9692 39.763 36.9692 39.775C36.9692 39.835 36.9452 39.889 36.8972 39.937C36.8552 39.979 36.8042 40 36.7442 40ZM35.8622 38.245C35.6882 37.843 35.5052 37.432 35.3132 37.012C35.1212 36.592 34.9352 36.193 34.7552 35.815C34.5872 36.199 34.4102 36.601 34.2242 37.021C34.0442 37.435 33.8702 37.843 33.7022 38.245H35.8622ZM41.5959 40C41.5299 40 41.4729 39.973 41.4249 39.919L39.9579 38.209H38.7519V39.775C38.7519 39.835 38.7309 39.889 38.6889 39.937C38.6469 39.979 38.5929 40 38.5269 40C38.4669 40 38.4129 39.979 38.3649 39.937C38.3229 39.889 38.3019 39.835 38.3019 39.775V35.41C38.3019 35.344 38.3229 35.29 38.3649 35.248C38.4129 35.206 38.4669 35.185 38.5269 35.185H39.8499C40.2039 35.185 40.5069 35.251 40.7589 35.383C41.0169 35.515 41.2149 35.695 41.3529 35.923C41.4969 36.145 41.5689 36.403 41.5689 36.697C41.5689 37.021 41.4789 37.315 41.2989 37.579C41.1249 37.843 40.8519 38.026 40.4799 38.128L41.7669 39.631C41.8029 39.667 41.8209 39.715 41.8209 39.775C41.8209 39.829 41.7999 39.88 41.7579 39.928C41.7159 39.976 41.6619 40 41.5959 40ZM38.7519 35.635V37.759H39.8499C40.2639 37.759 40.5789 37.657 40.7949 37.453C41.0109 37.243 41.1189 36.991 41.1189 36.697C41.1189 36.379 40.9989 36.124 40.7589 35.932C40.5249 35.734 40.2219 35.635 39.8499 35.635H38.7519ZM44.7281 40C44.6681 40 44.6141 39.979 44.5661 39.937C44.5241 39.889 44.5031 39.835 44.5031 39.775V35.635H42.8201C42.7601 35.635 42.7061 35.614 42.6581 35.572C42.6161 35.524 42.5951 35.47 42.5951 35.41C42.5951 35.344 42.6161 35.29 42.6581 35.248C42.7061 35.206 42.7601 35.185 42.8201 35.185H46.6721C46.7381 35.185 46.7921 35.206 46.8341 35.248C46.8761 35.29 46.8971 35.344 46.8971 35.41C46.8971 35.47 46.8761 35.524 46.8341 35.572C46.7921 35.614 46.7381 35.635 46.6721 35.635H44.9531V39.775C44.9531 39.835 44.9321 39.889 44.8901 39.937C44.8481 39.979 44.7941 40 44.7281 40ZM50.9019 40C50.8419 40 50.7879 39.979 50.7399 39.937C50.6979 39.889 50.6769 39.835 50.6769 39.775V35.41C50.6769 35.344 50.6979 35.29 50.7399 35.248C50.7879 35.206 50.8419 35.185 50.9019 35.185H52.4859C52.8819 35.185 53.2509 35.287 53.5929 35.491C53.9409 35.695 54.2199 35.977 54.4299 36.337C54.6459 36.697 54.7539 37.114 54.7539 37.588C54.7539 38.038 54.6579 38.446 54.4659 38.812C54.2799 39.172 54.0159 39.46 53.6739 39.676C53.3379 39.892 52.9419 40 52.4859 40H50.9019ZM51.1269 35.635V39.55H52.4859C52.8579 39.55 53.1789 39.463 53.4489 39.289C53.7249 39.109 53.9349 38.872 54.0789 38.578C54.2289 38.278 54.3039 37.948 54.3039 37.588C54.3039 37.21 54.2199 36.874 54.0519 36.58C53.8839 36.286 53.6619 36.055 53.3859 35.887C53.1099 35.719 52.8099 35.635 52.4859 35.635H51.1269ZM56.4127 40C56.3527 40 56.2987 39.979 56.2507 39.937C56.2087 39.889 56.1877 39.835 56.1877 39.775V35.41C56.1877 35.35 56.2057 35.299 56.2417 35.257C56.2837 35.209 56.3317 35.185 56.3857 35.185H58.9057C58.9717 35.185 59.0257 35.206 59.0677 35.248C59.1097 35.29 59.1307 35.344 59.1307 35.41C59.1307 35.47 59.1097 35.524 59.0677 35.572C59.0257 35.614 58.9717 35.635 58.9057 35.635H56.6377V37.201H58.5187C58.5847 37.201 58.6387 37.222 58.6807 37.264C58.7227 37.306 58.7437 37.36 58.7437 37.426C58.7437 37.486 58.7227 37.54 58.6807 37.588C58.6387 37.63 58.5847 37.651 58.5187 37.651H56.6377V39.55H58.9237C58.9897 39.55 59.0437 39.571 59.0857 39.613C59.1277 39.655 59.1487 39.709 59.1487 39.775C59.1487 39.835 59.1277 39.889 59.0857 39.937C59.0437 39.979 58.9897 40 58.9237 40H56.4127ZM63.0214 35.779C62.8774 35.719 62.7184 35.671 62.5444 35.635C62.3764 35.599 62.1544 35.581 61.8784 35.581C61.5724 35.581 61.3294 35.659 61.1494 35.815C60.9694 35.965 60.8794 36.136 60.8794 36.328C60.8794 36.52 60.9634 36.694 61.1314 36.85C61.2994 37.006 61.6264 37.141 62.1124 37.255C62.5444 37.351 62.8774 37.474 63.1114 37.624C63.3514 37.774 63.5194 37.945 63.6154 38.137C63.7114 38.323 63.7594 38.53 63.7594 38.758C63.7594 38.98 63.7024 39.193 63.5884 39.397C63.4804 39.595 63.3004 39.76 63.0484 39.892C62.8024 40.018 62.4724 40.081 62.0584 40.081C61.4704 40.081 60.9274 39.943 60.4294 39.667C60.3514 39.619 60.3124 39.553 60.3124 39.469C60.3124 39.415 60.3334 39.364 60.3754 39.316C60.4174 39.268 60.4714 39.244 60.5374 39.244C60.5734 39.244 60.6094 39.253 60.6454 39.271C61.0714 39.511 61.5424 39.631 62.0584 39.631C62.4664 39.631 62.7754 39.547 62.9854 39.379C63.2014 39.205 63.3094 38.998 63.3094 38.758C63.3094 38.506 63.2074 38.296 63.0034 38.128C62.8054 37.96 62.4784 37.819 62.0224 37.705C61.5964 37.597 61.2664 37.474 61.0324 37.336C60.8044 37.198 60.6454 37.042 60.5554 36.868C60.4714 36.694 60.4294 36.502 60.4294 36.292C60.4294 36.1 60.4834 35.917 60.5914 35.743C60.7054 35.563 60.8704 35.416 61.0864 35.302C61.3024 35.188 61.5664 35.131 61.8784 35.131C62.2084 35.131 62.4724 35.158 62.6704 35.212C62.8744 35.26 63.0874 35.329 63.3094 35.419C63.4054 35.455 63.4534 35.524 63.4534 35.626C63.4534 35.686 63.4294 35.74 63.3814 35.788C63.3394 35.83 63.2884 35.851 63.2284 35.851C63.2164 35.851 63.1984 35.848 63.1744 35.842C63.1504 35.83 63.0994 35.809 63.0214 35.779ZM65.7969 39.775C65.7969 39.835 65.7759 39.889 65.7339 39.937C65.6919 39.979 65.6379 40 65.5719 40C65.5119 40 65.4579 39.979 65.4099 39.937C65.3679 39.889 65.3469 39.835 65.3469 39.775V35.41C65.3469 35.344 65.3679 35.29 65.4099 35.248C65.4579 35.206 65.5119 35.185 65.5719 35.185C65.6379 35.185 65.6919 35.206 65.7339 35.248C65.7759 35.29 65.7969 35.344 65.7969 35.41V39.775ZM71.4387 39.604C71.2167 39.742 70.9647 39.856 70.6827 39.946C70.4067 40.036 70.0827 40.081 69.7107 40.081C69.1947 40.081 68.7537 39.973 68.3877 39.757C68.0277 39.535 67.7517 39.238 67.5597 38.866C67.3677 38.494 67.2717 38.08 67.2717 37.624C67.2717 37.12 67.3767 36.679 67.5867 36.301C67.8027 35.923 68.0967 35.629 68.4687 35.419C68.8407 35.209 69.2637 35.104 69.7377 35.104C70.0017 35.104 70.2477 35.131 70.4757 35.185C70.7097 35.233 70.9287 35.293 71.1327 35.365C71.2287 35.401 71.2767 35.47 71.2767 35.572C71.2767 35.632 71.2557 35.686 71.2137 35.734C71.1777 35.776 71.1237 35.797 71.0517 35.797C71.0337 35.797 71.0067 35.791 70.9707 35.779C70.7967 35.713 70.6077 35.659 70.4037 35.617C70.1997 35.575 69.9777 35.554 69.7377 35.554C69.3477 35.554 68.9997 35.641 68.6937 35.815C68.3937 35.989 68.1567 36.232 67.9827 36.544C67.8087 36.85 67.7217 37.21 67.7217 37.624C67.7217 37.996 67.7997 38.335 67.9557 38.641C68.1117 38.941 68.3367 39.181 68.6307 39.361C68.9307 39.541 69.2907 39.631 69.7107 39.631C70.0047 39.631 70.2627 39.601 70.4847 39.541C70.7127 39.475 70.9197 39.391 71.1057 39.289V37.984H69.8547C69.7947 37.984 69.7407 37.963 69.6927 37.921C69.6507 37.873 69.6297 37.819 69.6297 37.759C69.6297 37.693 69.6507 37.639 69.6927 37.597C69.7407 37.555 69.7947 37.534 69.8547 37.534H71.2317C71.3457 37.534 71.4267 37.552 71.4747 37.588C71.5287 37.618 71.5557 37.675 71.5557 37.759V39.379C71.5557 39.481 71.5167 39.556 71.4387 39.604ZM76.6601 39.91C76.4561 39.634 76.2191 39.325 75.9491 38.983C75.6851 38.641 75.4121 38.293 75.1301 37.939C74.8481 37.579 74.5751 37.231 74.3111 36.895C74.0531 36.559 73.8221 36.262 73.6181 36.004V39.775C73.6181 39.835 73.5971 39.889 73.5551 39.937C73.5131 39.979 73.4591 40 73.3931 40C73.3331 40 73.2791 39.979 73.2311 39.937C73.1891 39.889 73.1681 39.835 73.1681 39.775V35.41C73.1681 35.344 73.1891 35.29 73.2311 35.248C73.2791 35.206 73.3301 35.185 73.3841 35.185C73.5041 35.185 73.5851 35.215 73.6271 35.275C73.7771 35.473 73.9721 35.728 74.2121 36.04C74.4521 36.346 74.7131 36.682 74.9951 37.048C75.2831 37.408 75.5711 37.774 75.8591 38.146C76.1531 38.512 76.4231 38.857 76.6691 39.181V35.41C76.6691 35.344 76.6901 35.29 76.7321 35.248C76.7801 35.206 76.8341 35.185 76.8941 35.185C76.9601 35.185 77.0141 35.206 77.0561 35.248C77.0981 35.29 77.1191 35.344 77.1191 35.41V39.775C77.1191 39.835 77.0981 39.889 77.0561 39.937C77.0141 39.979 76.9631 40 76.9031 40C76.7831 40 76.7021 39.97 76.6601 39.91ZM81.329 35.779C81.185 35.719 81.026 35.671 80.852 35.635C80.684 35.599 80.462 35.581 80.186 35.581C79.88 35.581 79.637 35.659 79.457 35.815C79.277 35.965 79.187 36.136 79.187 36.328C79.187 36.52 79.271 36.694 79.439 36.85C79.607 37.006 79.934 37.141 80.42 37.255C80.852 37.351 81.185 37.474 81.419 37.624C81.659 37.774 81.827 37.945 81.923 38.137C82.019 38.323 82.067 38.53 82.067 38.758C82.067 38.98 82.01 39.193 81.896 39.397C81.788 39.595 81.608 39.76 81.356 39.892C81.11 40.018 80.78 40.081 80.366 40.081C79.778 40.081 79.235 39.943 78.737 39.667C78.659 39.619 78.62 39.553 78.62 39.469C78.62 39.415 78.641 39.364 78.683 39.316C78.725 39.268 78.779 39.244 78.845 39.244C78.881 39.244 78.917 39.253 78.953 39.271C79.379 39.511 79.85 39.631 80.366 39.631C80.774 39.631 81.083 39.547 81.293 39.379C81.509 39.205 81.617 38.998 81.617 38.758C81.617 38.506 81.515 38.296 81.311 38.128C81.113 37.96 80.786 37.819 80.33 37.705C79.904 37.597 79.574 37.474 79.34 37.336C79.112 37.198 78.953 37.042 78.863 36.868C78.779 36.694 78.737 36.502 78.737 36.292C78.737 36.1 78.791 35.917 78.899 35.743C79.013 35.563 79.178 35.416 79.394 35.302C79.61 35.188 79.874 35.131 80.186 35.131C80.516 35.131 80.78 35.158 80.978 35.212C81.182 35.26 81.395 35.329 81.617 35.419C81.713 35.455 81.761 35.524 81.761 35.626C81.761 35.686 81.737 35.74 81.689 35.788C81.647 35.83 81.596 35.851 81.536 35.851C81.524 35.851 81.506 35.848 81.482 35.842C81.458 35.83 81.407 35.809 81.329 35.779ZM83.8017 39.217C83.8197 39.277 83.8347 39.352 83.8467 39.442C83.8587 39.532 83.8647 39.628 83.8647 39.73C83.8647 39.958 83.8257 40.183 83.7477 40.405C83.6757 40.633 83.5737 40.834 83.4417 41.008C83.3997 41.068 83.3397 41.098 83.2617 41.098C83.2017 41.098 83.1477 41.074 83.0997 41.026C83.0577 40.984 83.0367 40.933 83.0367 40.873C83.0367 40.825 83.0517 40.78 83.0817 40.738C83.1837 40.6 83.2647 40.444 83.3247 40.27C83.3847 40.096 83.4147 39.916 83.4147 39.73C83.4147 39.592 83.4057 39.496 83.3877 39.442C83.3697 39.388 83.3607 39.34 83.3607 39.298C83.3607 39.232 83.3817 39.178 83.4237 39.136C83.4717 39.088 83.5227 39.064 83.5767 39.064C83.6907 39.064 83.7657 39.115 83.8017 39.217ZM91.3847 35.788C91.0907 35.632 90.7187 35.554 90.2687 35.554C89.9087 35.554 89.5757 35.641 89.2697 35.815C88.9697 35.989 88.7267 36.232 88.5407 36.544C88.3547 36.85 88.2617 37.21 88.2617 37.624C88.2617 38.002 88.3427 38.344 88.5047 38.65C88.6667 38.95 88.9007 39.19 89.2067 39.37C89.5187 39.544 89.8907 39.631 90.3227 39.631C90.5387 39.631 90.7397 39.61 90.9257 39.568C91.1177 39.526 91.2887 39.466 91.4387 39.388C91.4687 39.37 91.5017 39.361 91.5377 39.361C91.6037 39.361 91.6577 39.382 91.6997 39.424C91.7417 39.466 91.7627 39.52 91.7627 39.586C91.7627 39.682 91.7207 39.748 91.6367 39.784C91.4567 39.88 91.2557 39.952 91.0337 40C90.8117 40.054 90.5747 40.081 90.3227 40.081C89.7947 40.081 89.3417 39.973 88.9637 39.757C88.5917 39.541 88.3067 39.247 88.1087 38.875C87.9107 38.503 87.8117 38.086 87.8117 37.624C87.8117 37.12 87.9257 36.679 88.1537 36.301C88.3817 35.923 88.6817 35.629 89.0537 35.419C89.4257 35.209 89.8307 35.104 90.2687 35.104C90.8087 35.104 91.2527 35.2 91.6007 35.392C91.6787 35.44 91.7177 35.506 91.7177 35.59C91.7177 35.644 91.6967 35.695 91.6547 35.743C91.6127 35.791 91.5587 35.815 91.4927 35.815C91.4567 35.815 91.4207 35.806 91.3847 35.788ZM96.5364 40C96.4704 40 96.4134 39.973 96.3654 39.919L94.8984 38.209H93.6924V39.775C93.6924 39.835 93.6714 39.889 93.6294 39.937C93.5874 39.979 93.5334 40 93.4674 40C93.4074 40 93.3534 39.979 93.3054 39.937C93.2634 39.889 93.2424 39.835 93.2424 39.775V35.41C93.2424 35.344 93.2634 35.29 93.3054 35.248C93.3534 35.206 93.4074 35.185 93.4674 35.185H94.7904C95.1444 35.185 95.4474 35.251 95.6994 35.383C95.9574 35.515 96.1554 35.695 96.2934 35.923C96.4374 36.145 96.5094 36.403 96.5094 36.697C96.5094 37.021 96.4194 37.315 96.2394 37.579C96.0654 37.843 95.7924 38.026 95.4204 38.128L96.7074 39.631C96.7434 39.667 96.7614 39.715 96.7614 39.775C96.7614 39.829 96.7404 39.88 96.6984 39.928C96.6564 39.976 96.6024 40 96.5364 40ZM93.6924 35.635V37.759H94.7904C95.2044 37.759 95.5194 37.657 95.7354 37.453C95.9514 37.243 96.0594 36.991 96.0594 36.697C96.0594 36.379 95.9394 36.124 95.6994 35.932C95.4654 35.734 95.1624 35.635 94.7904 35.635H93.6924ZM102.047 40C101.945 40 101.876 39.952 101.84 39.856C101.78 39.694 101.708 39.514 101.624 39.316C101.54 39.118 101.45 38.911 101.354 38.695H98.816C98.732 38.911 98.651 39.118 98.573 39.316C98.501 39.508 98.435 39.685 98.375 39.847C98.357 39.895 98.327 39.934 98.285 39.964C98.243 39.988 98.198 40 98.15 40C98.096 40 98.045 39.979 97.997 39.937C97.955 39.889 97.934 39.832 97.934 39.766C97.934 39.748 97.937 39.724 97.943 39.694C97.955 39.658 97.982 39.589 98.024 39.487C98.126 39.217 98.246 38.908 98.384 38.56C98.528 38.212 98.681 37.849 98.843 37.471C99.005 37.093 99.17 36.712 99.338 36.328C99.506 35.944 99.668 35.581 99.824 35.239C99.866 35.149 99.938 35.104 100.04 35.104H100.076C100.184 35.104 100.256 35.146 100.292 35.23C100.454 35.578 100.625 35.953 100.805 36.355C100.991 36.757 101.171 37.156 101.345 37.552C101.519 37.942 101.678 38.308 101.822 38.65C101.966 38.986 102.083 39.265 102.173 39.487C102.221 39.595 102.248 39.667 102.254 39.703C102.266 39.739 102.272 39.763 102.272 39.775C102.272 39.835 102.248 39.889 102.2 39.937C102.158 39.979 102.107 40 102.047 40ZM101.165 38.245C100.991 37.843 100.808 37.432 100.616 37.012C100.424 36.592 100.238 36.193 100.058 35.815C99.89 36.199 99.713 36.601 99.527 37.021C99.347 37.435 99.173 37.843 99.005 38.245H101.165ZM103.83 40C103.77 40 103.716 39.979 103.668 39.937C103.626 39.889 103.605 39.835 103.605 39.775V35.41C103.605 35.344 103.626 35.29 103.668 35.248C103.716 35.206 103.77 35.185 103.83 35.185H106.395C106.461 35.185 106.515 35.206 106.557 35.248C106.599 35.29 106.62 35.344 106.62 35.41C106.62 35.47 106.599 35.524 106.557 35.572C106.515 35.614 106.461 35.635 106.395 35.635H104.055V37.372H105.936C106.002 37.372 106.056 37.393 106.098 37.435C106.14 37.477 106.161 37.531 106.161 37.597C106.161 37.657 106.14 37.711 106.098 37.759C106.056 37.801 106.002 37.822 105.936 37.822H104.055V39.775C104.055 39.835 104.034 39.889 103.992 39.937C103.95 39.979 103.896 40 103.83 40ZM109.433 40C109.373 40 109.319 39.979 109.271 39.937C109.229 39.889 109.208 39.835 109.208 39.775V35.635H107.525C107.465 35.635 107.411 35.614 107.363 35.572C107.321 35.524 107.3 35.47 107.3 35.41C107.3 35.344 107.321 35.29 107.363 35.248C107.411 35.206 107.465 35.185 107.525 35.185H111.377C111.443 35.185 111.497 35.206 111.539 35.248C111.581 35.29 111.602 35.344 111.602 35.41C111.602 35.47 111.581 35.524 111.539 35.572C111.497 35.614 111.443 35.635 111.377 35.635H109.658V39.775C109.658 39.835 109.637 39.889 109.595 39.937C109.553 39.979 109.499 40 109.433 40ZM113.014 40C112.954 40 112.9 39.979 112.852 39.937C112.81 39.889 112.789 39.835 112.789 39.775V35.41C112.789 35.35 112.807 35.299 112.843 35.257C112.885 35.209 112.933 35.185 112.987 35.185H115.507C115.573 35.185 115.627 35.206 115.669 35.248C115.711 35.29 115.732 35.344 115.732 35.41C115.732 35.47 115.711 35.524 115.669 35.572C115.627 35.614 115.573 35.635 115.507 35.635H113.239V37.201H115.12C115.186 37.201 115.24 37.222 115.282 37.264C115.324 37.306 115.345 37.36 115.345 37.426C115.345 37.486 115.324 37.54 115.282 37.588C115.24 37.63 115.186 37.651 115.12 37.651H113.239V39.55H115.525C115.591 39.55 115.645 39.571 115.687 39.613C115.729 39.655 115.75 39.709 115.75 39.775C115.75 39.835 115.729 39.889 115.687 39.937C115.645 39.979 115.591 40 115.525 40H113.014ZM117.4 40C117.34 40 117.286 39.979 117.238 39.937C117.196 39.889 117.175 39.835 117.175 39.775V35.41C117.175 35.344 117.196 35.29 117.238 35.248C117.286 35.206 117.34 35.185 117.4 35.185H118.984C119.38 35.185 119.749 35.287 120.091 35.491C120.439 35.695 120.718 35.977 120.928 36.337C121.144 36.697 121.252 37.114 121.252 37.588C121.252 38.038 121.156 38.446 120.964 38.812C120.778 39.172 120.514 39.46 120.172 39.676C119.836 39.892 119.44 40 118.984 40H117.4ZM117.625 35.635V39.55H118.984C119.356 39.55 119.677 39.463 119.947 39.289C120.223 39.109 120.433 38.872 120.577 38.578C120.727 38.278 120.802 37.948 120.802 37.588C120.802 37.21 120.718 36.874 120.55 36.58C120.382 36.286 120.16 36.055 119.884 35.887C119.608 35.719 119.308 35.635 118.984 35.635H117.625ZM125.503 40C125.443 40 125.389 39.979 125.341 39.937C125.299 39.889 125.278 39.835 125.278 39.775V35.41C125.278 35.344 125.299 35.29 125.341 35.248C125.389 35.206 125.443 35.185 125.503 35.185H126.754C127.018 35.185 127.24 35.224 127.42 35.302C127.6 35.38 127.747 35.473 127.861 35.581C127.963 35.683 128.044 35.812 128.104 35.968C128.164 36.118 128.194 36.265 128.194 36.409C128.194 36.571 128.164 36.727 128.104 36.877C128.044 37.021 127.963 37.144 127.861 37.246C127.843 37.264 127.822 37.285 127.798 37.309C127.78 37.327 127.756 37.345 127.726 37.363C127.93 37.447 128.098 37.555 128.23 37.687C128.494 37.951 128.626 38.266 128.626 38.632C128.626 38.794 128.596 38.956 128.536 39.118C128.476 39.274 128.383 39.415 128.257 39.541C128.125 39.673 127.951 39.784 127.735 39.874C127.519 39.958 127.24 40 126.898 40H125.503ZM126.835 37.21C126.991 37.198 127.129 37.165 127.249 37.111C127.375 37.051 127.471 36.988 127.537 36.922C127.675 36.796 127.744 36.625 127.744 36.409C127.744 36.211 127.675 36.043 127.537 35.905C127.459 35.821 127.354 35.755 127.222 35.707C127.096 35.659 126.94 35.635 126.754 35.635H125.728V37.21H126.835ZM125.728 37.66V39.55H126.898C127.162 39.55 127.375 39.52 127.537 39.46C127.705 39.4 127.837 39.319 127.933 39.217C128.095 39.055 128.176 38.86 128.176 38.632C128.176 38.398 128.086 38.191 127.906 38.011C127.672 37.777 127.345 37.66 126.925 37.66H125.728ZM131.461 40C131.401 40 131.347 39.979 131.299 39.937C131.257 39.889 131.236 39.835 131.236 39.775V38.263C131.134 38.131 130.999 37.945 130.831 37.705C130.663 37.465 130.486 37.207 130.3 36.931C130.12 36.655 129.946 36.391 129.778 36.139C129.616 35.887 129.49 35.683 129.4 35.527C129.382 35.491 129.373 35.452 129.373 35.41C129.373 35.356 129.391 35.308 129.427 35.266C129.463 35.218 129.517 35.194 129.589 35.194C129.679 35.194 129.742 35.227 129.778 35.293C129.862 35.431 129.973 35.611 130.111 35.833C130.255 36.049 130.408 36.28 130.57 36.526C130.738 36.772 130.9 37.009 131.056 37.237C131.218 37.465 131.356 37.66 131.47 37.822C131.596 37.648 131.734 37.447 131.884 37.219C132.04 36.985 132.196 36.748 132.352 36.508C132.508 36.262 132.652 36.034 132.784 35.824C132.922 35.608 133.03 35.431 133.108 35.293C133.144 35.227 133.207 35.194 133.297 35.194C133.441 35.194 133.513 35.266 133.513 35.41C133.513 35.452 133.504 35.491 133.486 35.527C133.396 35.677 133.273 35.875 133.117 36.121C132.967 36.361 132.802 36.619 132.622 36.895C132.442 37.165 132.268 37.423 132.1 37.669C131.938 37.915 131.8 38.119 131.686 38.281V39.775C131.686 39.835 131.665 39.889 131.623 39.937C131.581 39.979 131.527 40 131.461 40ZM142.978 40.018C142.924 40.018 142.876 40 142.834 39.964C142.792 39.928 142.765 39.88 142.753 39.82C142.711 39.478 142.657 39.091 142.591 38.659C142.525 38.227 142.453 37.78 142.375 37.318C142.297 36.856 142.216 36.409 142.132 35.977C141.934 36.379 141.73 36.799 141.52 37.237C141.316 37.669 141.121 38.095 140.935 38.515C140.749 38.935 140.581 39.328 140.431 39.694C140.389 39.796 140.323 39.847 140.233 39.847C140.125 39.847 140.053 39.805 140.017 39.721C139.843 39.349 139.651 38.947 139.441 38.515C139.231 38.077 139.021 37.639 138.811 37.201C138.607 36.763 138.415 36.358 138.235 35.986C138.187 36.304 138.136 36.64 138.082 36.994C138.034 37.348 137.986 37.699 137.938 38.047C137.896 38.395 137.854 38.722 137.812 39.028C137.776 39.334 137.746 39.598 137.722 39.82C137.716 39.874 137.689 39.922 137.641 39.964C137.599 40 137.548 40.018 137.488 40.018C137.428 40.018 137.377 39.997 137.335 39.955C137.293 39.907 137.272 39.85 137.272 39.784C137.272 39.772 137.281 39.685 137.299 39.523C137.323 39.325 137.356 39.055 137.398 38.713C137.44 38.371 137.488 37.999 137.542 37.597C137.596 37.189 137.653 36.784 137.713 36.382C137.773 35.98 137.83 35.617 137.884 35.293C137.896 35.239 137.923 35.194 137.965 35.158C138.013 35.122 138.064 35.104 138.118 35.104C138.19 35.104 138.244 35.128 138.28 35.176C138.34 35.236 138.388 35.308 138.424 35.392C138.592 35.728 138.775 36.106 138.973 36.526C139.177 36.94 139.387 37.366 139.603 37.804C139.819 38.242 140.023 38.662 140.215 39.064C140.389 38.668 140.575 38.248 140.773 37.804C140.977 37.354 141.184 36.907 141.394 36.463C141.61 36.013 141.82 35.596 142.024 35.212C142.072 35.134 142.141 35.095 142.231 35.095C142.285 35.095 142.336 35.113 142.384 35.149C142.432 35.179 142.459 35.221 142.465 35.275C142.537 35.629 142.606 36.007 142.672 36.409C142.744 36.805 142.81 37.186 142.87 37.552C142.93 37.918 142.978 38.239 143.014 38.515C143.056 38.785 143.086 38.971 143.104 39.073C143.152 39.367 143.179 39.556 143.185 39.64C143.197 39.724 143.203 39.775 143.203 39.793C143.203 39.853 143.182 39.907 143.14 39.955C143.098 39.997 143.044 40.018 142.978 40.018ZM148.567 40C148.465 40 148.396 39.952 148.36 39.856C148.3 39.694 148.228 39.514 148.144 39.316C148.06 39.118 147.97 38.911 147.874 38.695H145.336C145.252 38.911 145.171 39.118 145.093 39.316C145.021 39.508 144.955 39.685 144.895 39.847C144.877 39.895 144.847 39.934 144.805 39.964C144.763 39.988 144.718 40 144.67 40C144.616 40 144.565 39.979 144.517 39.937C144.475 39.889 144.454 39.832 144.454 39.766C144.454 39.748 144.457 39.724 144.463 39.694C144.475 39.658 144.502 39.589 144.544 39.487C144.646 39.217 144.766 38.908 144.904 38.56C145.048 38.212 145.201 37.849 145.363 37.471C145.525 37.093 145.69 36.712 145.858 36.328C146.026 35.944 146.188 35.581 146.344 35.239C146.386 35.149 146.458 35.104 146.56 35.104H146.596C146.704 35.104 146.776 35.146 146.812 35.23C146.974 35.578 147.145 35.953 147.325 36.355C147.511 36.757 147.691 37.156 147.865 37.552C148.039 37.942 148.198 38.308 148.342 38.65C148.486 38.986 148.603 39.265 148.693 39.487C148.741 39.595 148.768 39.667 148.774 39.703C148.786 39.739 148.792 39.763 148.792 39.775C148.792 39.835 148.768 39.889 148.72 39.937C148.678 39.979 148.627 40 148.567 40ZM147.685 38.245C147.511 37.843 147.328 37.432 147.136 37.012C146.944 36.592 146.758 36.193 146.578 35.815C146.41 36.199 146.233 36.601 146.047 37.021C145.867 37.435 145.693 37.843 145.525 38.245H147.685ZM153.321 35.788C153.027 35.632 152.655 35.554 152.205 35.554C151.845 35.554 151.512 35.641 151.206 35.815C150.906 35.989 150.663 36.232 150.477 36.544C150.291 36.85 150.198 37.21 150.198 37.624C150.198 38.002 150.279 38.344 150.441 38.65C150.603 38.95 150.837 39.19 151.143 39.37C151.455 39.544 151.827 39.631 152.259 39.631C152.475 39.631 152.676 39.61 152.862 39.568C153.054 39.526 153.225 39.466 153.375 39.388C153.405 39.37 153.438 39.361 153.474 39.361C153.54 39.361 153.594 39.382 153.636 39.424C153.678 39.466 153.699 39.52 153.699 39.586C153.699 39.682 153.657 39.748 153.573 39.784C153.393 39.88 153.192 39.952 152.97 40C152.748 40.054 152.511 40.081 152.259 40.081C151.731 40.081 151.278 39.973 150.9 39.757C150.528 39.541 150.243 39.247 150.045 38.875C149.847 38.503 149.748 38.086 149.748 37.624C149.748 37.12 149.862 36.679 150.09 36.301C150.318 35.923 150.618 35.629 150.99 35.419C151.362 35.209 151.767 35.104 152.205 35.104C152.745 35.104 153.189 35.2 153.537 35.392C153.615 35.44 153.654 35.506 153.654 35.59C153.654 35.644 153.633 35.695 153.591 35.743C153.549 35.791 153.495 35.815 153.429 35.815C153.393 35.815 153.357 35.806 153.321 35.788ZM158.869 40C158.809 40 158.755 39.979 158.707 39.937C158.665 39.889 158.644 39.835 158.644 39.775V37.66H155.629V39.775C155.629 39.835 155.608 39.889 155.566 39.937C155.524 39.979 155.47 40 155.404 40C155.344 40 155.29 39.979 155.242 39.937C155.2 39.889 155.179 39.835 155.179 39.775V35.41C155.179 35.344 155.2 35.29 155.242 35.248C155.29 35.206 155.344 35.185 155.404 35.185C155.47 35.185 155.524 35.206 155.566 35.248C155.608 35.29 155.629 35.344 155.629 35.41V37.21H158.644V35.41C158.644 35.344 158.665 35.29 158.707 35.248C158.755 35.206 158.809 35.185 158.869 35.185C158.935 35.185 158.989 35.206 159.031 35.248C159.073 35.29 159.094 35.344 159.094 35.41V39.775C159.094 39.835 159.073 39.889 159.031 39.937C158.989 39.979 158.935 40 158.869 40ZM161.352 39.775C161.352 39.835 161.331 39.889 161.289 39.937C161.247 39.979 161.193 40 161.127 40C161.067 40 161.013 39.979 160.965 39.937C160.923 39.889 160.902 39.835 160.902 39.775V35.41C160.902 35.344 160.923 35.29 160.965 35.248C161.013 35.206 161.067 35.185 161.127 35.185C161.193 35.185 161.247 35.206 161.289 35.248C161.331 35.29 161.352 35.344 161.352 35.41V39.775ZM166.651 39.91C166.447 39.634 166.21 39.325 165.94 38.983C165.676 38.641 165.403 38.293 165.121 37.939C164.839 37.579 164.566 37.231 164.302 36.895C164.044 36.559 163.813 36.262 163.609 36.004V39.775C163.609 39.835 163.588 39.889 163.546 39.937C163.504 39.979 163.45 40 163.384 40C163.324 40 163.27 39.979 163.222 39.937C163.18 39.889 163.159 39.835 163.159 39.775V35.41C163.159 35.344 163.18 35.29 163.222 35.248C163.27 35.206 163.321 35.185 163.375 35.185C163.495 35.185 163.576 35.215 163.618 35.275C163.768 35.473 163.963 35.728 164.203 36.04C164.443 36.346 164.704 36.682 164.986 37.048C165.274 37.408 165.562 37.774 165.85 38.146C166.144 38.512 166.414 38.857 166.66 39.181V35.41C166.66 35.344 166.681 35.29 166.723 35.248C166.771 35.206 166.825 35.185 166.885 35.185C166.951 35.185 167.005 35.206 167.047 35.248C167.089 35.29 167.11 35.344 167.11 35.41V39.775C167.11 39.835 167.089 39.889 167.047 39.937C167.005 39.979 166.954 40 166.894 40C166.774 40 166.693 39.97 166.651 39.91ZM169.097 40C169.037 40 168.983 39.979 168.935 39.937C168.893 39.889 168.872 39.835 168.872 39.775V35.41C168.872 35.35 168.89 35.299 168.926 35.257C168.968 35.209 169.016 35.185 169.07 35.185H171.59C171.656 35.185 171.71 35.206 171.752 35.248C171.794 35.29 171.815 35.344 171.815 35.41C171.815 35.47 171.794 35.524 171.752 35.572C171.71 35.614 171.656 35.635 171.59 35.635H169.322V37.201H171.203C171.269 37.201 171.323 37.222 171.365 37.264C171.407 37.306 171.428 37.36 171.428 37.426C171.428 37.486 171.407 37.54 171.365 37.588C171.323 37.63 171.269 37.651 171.203 37.651H169.322V39.55H171.608C171.674 39.55 171.728 39.571 171.77 39.613C171.812 39.655 171.833 39.709 171.833 39.775C171.833 39.835 171.812 39.889 171.77 39.937C171.728 39.979 171.674 40 171.608 40H169.097ZM175.706 35.779C175.562 35.719 175.403 35.671 175.229 35.635C175.061 35.599 174.839 35.581 174.563 35.581C174.257 35.581 174.014 35.659 173.834 35.815C173.654 35.965 173.564 36.136 173.564 36.328C173.564 36.52 173.648 36.694 173.816 36.85C173.984 37.006 174.311 37.141 174.797 37.255C175.229 37.351 175.562 37.474 175.796 37.624C176.036 37.774 176.204 37.945 176.3 38.137C176.396 38.323 176.444 38.53 176.444 38.758C176.444 38.98 176.387 39.193 176.273 39.397C176.165 39.595 175.985 39.76 175.733 39.892C175.487 40.018 175.157 40.081 174.743 40.081C174.155 40.081 173.612 39.943 173.114 39.667C173.036 39.619 172.997 39.553 172.997 39.469C172.997 39.415 173.018 39.364 173.06 39.316C173.102 39.268 173.156 39.244 173.222 39.244C173.258 39.244 173.294 39.253 173.33 39.271C173.756 39.511 174.227 39.631 174.743 39.631C175.151 39.631 175.46 39.547 175.67 39.379C175.886 39.205 175.994 38.998 175.994 38.758C175.994 38.506 175.892 38.296 175.688 38.128C175.49 37.96 175.163 37.819 174.707 37.705C174.281 37.597 173.951 37.474 173.717 37.336C173.489 37.198 173.33 37.042 173.24 36.868C173.156 36.694 173.114 36.502 173.114 36.292C173.114 36.1 173.168 35.917 173.276 35.743C173.39 35.563 173.555 35.416 173.771 35.302C173.987 35.188 174.251 35.131 174.563 35.131C174.893 35.131 175.157 35.158 175.355 35.212C175.559 35.26 175.772 35.329 175.994 35.419C176.09 35.455 176.138 35.524 176.138 35.626C176.138 35.686 176.114 35.74 176.066 35.788C176.024 35.83 175.973 35.851 175.913 35.851C175.901 35.851 175.883 35.848 175.859 35.842C175.835 35.83 175.784 35.809 175.706 35.779Z" fill="#BCBCBC"/>
</svg>
