<svg width="146" height="11" viewBox="0 0 146 11" fill="none" xmlns="http://www.w3.org/2000/svg">
<path d="M9.128 10.16C9.064 10.16 8.99467 10.1333 8.92 10.08C8.84533 10.0373 8.78133 9.95733 8.728 9.84C8.6 9.584 8.42933 9.2 8.216 8.688C8.00267 8.176 7.77333 7.6 7.528 6.96C7.29333 6.30933 7.05333 5.65867 6.808 5.008C6.57333 4.34667 6.36533 3.744 6.184 3.2C5.98133 3.78667 5.75733 4.41067 5.512 5.072C5.26667 5.72267 5.02133 6.368 4.776 7.008C4.53067 7.63733 4.30133 8.208 4.088 8.72C3.88533 9.22133 3.72 9.616 3.592 9.904C3.51733 10.064 3.38933 10.144 3.208 10.144C3.10133 10.144 3.01067 10.1067 2.936 10.032C2.872 9.968 2.824 9.89867 2.792 9.824C2.68533 9.58933 2.54133 9.23733 2.36 8.768C2.17867 8.288 1.98133 7.75467 1.768 7.168C1.55467 6.57067 1.34667 5.97333 1.144 5.376C0.941333 4.768 0.754667 4.21333 0.584 3.712C0.424 3.2 0.301333 2.79467 0.216 2.496C0.152 2.272 0.109333 2.11733 0.0880001 2.032C0.0666667 1.94667 0.056 1.888 0.056 1.856C0.056 1.74933 0.0933334 1.65867 0.168 1.584C0.253333 1.49867 0.349333 1.456 0.456 1.456C0.658667 1.456 0.786667 1.552 0.84 1.744C0.957333 2.16 1.112 2.67733 1.304 3.296C1.496 3.904 1.704 4.544 1.928 5.216C2.16267 5.888 2.392 6.53333 2.616 7.152C2.84 7.77067 3.03733 8.29867 3.208 8.736C3.4 8.288 3.61333 7.76533 3.848 7.168C4.08267 6.57067 4.32267 5.952 4.568 5.312C4.81333 4.66133 5.04267 4.032 5.256 3.424C5.48 2.80533 5.66133 2.26133 5.8 1.792C5.85333 1.6 5.98133 1.504 6.184 1.504C6.376 1.504 6.52533 1.664 6.632 1.984C6.77067 2.41067 6.94133 2.92267 7.144 3.52C7.35733 4.11733 7.58133 4.74133 7.816 5.392C8.05067 6.032 8.28 6.65067 8.504 7.248C8.73867 7.83467 8.94133 8.34133 9.112 8.768C9.29333 8.32 9.49067 7.79733 9.704 7.2C9.928 6.592 10.152 5.96267 10.376 5.312C10.6 4.65067 10.8133 4.01067 11.016 3.392C11.2187 2.77333 11.3893 2.224 11.528 1.744C11.5813 1.552 11.7093 1.456 11.912 1.456C12.008 1.456 12.0987 1.49867 12.184 1.584C12.2693 1.65867 12.312 1.74933 12.312 1.856C12.312 1.89867 12.2853 2.01067 12.232 2.192C12.1147 2.608 11.96 3.09867 11.768 3.664C11.5867 4.21867 11.3893 4.80533 11.176 5.424C10.9733 6.032 10.7653 6.62933 10.552 7.216C10.3387 7.80267 10.1413 8.336 9.96 8.816C9.77867 9.28533 9.62933 9.65333 9.512 9.92C9.43733 10.08 9.30933 10.16 9.128 10.16ZM15.3274 10C15.2207 10 15.1247 9.96267 15.0394 9.888C14.9647 9.80267 14.9274 9.70667 14.9274 9.6V1.84C14.9274 1.73333 14.9594 1.64267 15.0234 1.568C15.098 1.48267 15.1834 1.44 15.2794 1.44H19.7594C19.8767 1.44 19.9727 1.47733 20.0474 1.552C20.122 1.62667 20.1594 1.72267 20.1594 1.84C20.1594 1.94667 20.122 2.04267 20.0474 2.128C19.9727 2.20267 19.8767 2.24 19.7594 2.24H15.7274V5.024H19.0714C19.1887 5.024 19.2847 5.06133 19.3594 5.136C19.434 5.21067 19.4714 5.30667 19.4714 5.424C19.4714 5.53067 19.434 5.62667 19.3594 5.712C19.2847 5.78667 19.1887 5.824 19.0714 5.824H15.7274V9.2H19.7914C19.9087 9.2 20.0047 9.23733 20.0794 9.312C20.154 9.38667 20.1914 9.48267 20.1914 9.6C20.1914 9.70667 20.154 9.80267 20.0794 9.888C20.0047 9.96267 19.9087 10 19.7914 10H15.3274ZM23.5145 3.792C23.4612 3.99467 23.3332 4.096 23.1305 4.096C23.0238 4.096 22.9278 4.05867 22.8425 3.984C22.7678 3.89867 22.7305 3.80267 22.7305 3.696C22.7305 3.67467 22.7412 3.62667 22.7625 3.552C22.7838 3.46667 22.7998 3.38667 22.8105 3.312L23.3865 0.783999C23.4398 0.581333 23.5678 0.48 23.7705 0.48C23.8772 0.48 23.9678 0.522666 24.0425 0.608C24.1278 0.682666 24.1705 0.767999 24.1705 0.863999C24.1705 0.885333 24.1652 0.928 24.1545 0.992C24.1438 1.04533 24.1278 1.11467 24.1065 1.2L23.5145 3.792ZM32.9084 10C32.791 10 32.6897 9.952 32.6044 9.856L29.9964 6.816H27.8524V9.6C27.8524 9.70667 27.815 9.80267 27.7404 9.888C27.6657 9.96267 27.5697 10 27.4524 10C27.3457 10 27.2497 9.96267 27.1644 9.888C27.0897 9.80267 27.0524 9.70667 27.0524 9.6V1.84C27.0524 1.72267 27.0897 1.62667 27.1644 1.552C27.2497 1.47733 27.3457 1.44 27.4524 1.44H29.8044C30.4337 1.44 30.9724 1.55733 31.4204 1.792C31.879 2.02667 32.231 2.34667 32.4764 2.752C32.7324 3.14667 32.8604 3.60533 32.8604 4.128C32.8604 4.704 32.7004 5.22667 32.3804 5.696C32.071 6.16533 31.5857 6.49067 30.9244 6.672L33.2124 9.344C33.2764 9.408 33.3084 9.49333 33.3084 9.6C33.3084 9.696 33.271 9.78667 33.1964 9.872C33.1217 9.95733 33.0257 10 32.9084 10ZM27.8524 2.24V6.016H29.8044C30.5404 6.016 31.1004 5.83467 31.4844 5.472C31.8684 5.09867 32.0604 4.65067 32.0604 4.128C32.0604 3.56267 31.847 3.10933 31.4204 2.768C31.0044 2.416 30.4657 2.24 29.8044 2.24H27.8524ZM36.1086 10C36.002 10 35.906 9.96267 35.8206 9.888C35.746 9.80267 35.7086 9.70667 35.7086 9.6V1.84C35.7086 1.73333 35.7406 1.64267 35.8046 1.568C35.8793 1.48267 35.9646 1.44 36.0606 1.44H40.5406C40.658 1.44 40.754 1.47733 40.8286 1.552C40.9033 1.62667 40.9406 1.72267 40.9406 1.84C40.9406 1.94667 40.9033 2.04267 40.8286 2.128C40.754 2.20267 40.658 2.24 40.5406 2.24H36.5086V5.024H39.8526C39.97 5.024 40.066 5.06133 40.1406 5.136C40.2153 5.21067 40.2526 5.30667 40.2526 5.424C40.2526 5.53067 40.2153 5.62667 40.1406 5.712C40.066 5.78667 39.97 5.824 39.8526 5.824H36.5086V9.2H40.5726C40.69 9.2 40.786 9.23733 40.8606 9.312C40.9353 9.38667 40.9726 9.48267 40.9726 9.6C40.9726 9.70667 40.9353 9.80267 40.8606 9.888C40.786 9.96267 40.69 10 40.5726 10H36.1086ZM53.8749 2.512C53.3522 2.23467 52.6909 2.096 51.8909 2.096C51.2509 2.096 50.6589 2.25067 50.1149 2.56C49.5815 2.86933 49.1495 3.30133 48.8189 3.856C48.4882 4.4 48.3229 5.04 48.3229 5.776C48.3229 6.448 48.4669 7.056 48.7549 7.6C49.0429 8.13333 49.4589 8.56 50.0029 8.88C50.5575 9.18933 51.2189 9.344 51.9869 9.344C52.3709 9.344 52.7282 9.30667 53.0589 9.232C53.4002 9.15733 53.7042 9.05067 53.9709 8.912C54.0242 8.88 54.0829 8.864 54.1469 8.864C54.2642 8.864 54.3602 8.90133 54.4349 8.976C54.5095 9.05067 54.5469 9.14667 54.5469 9.264C54.5469 9.43467 54.4722 9.552 54.3229 9.616C54.0029 9.78667 53.6455 9.91467 53.2509 10C52.8562 10.096 52.4349 10.144 51.9869 10.144C51.0482 10.144 50.2429 9.952 49.5709 9.568C48.9095 9.184 48.4029 8.66133 48.0509 8C47.6989 7.33867 47.5229 6.59733 47.5229 5.776C47.5229 4.88 47.7255 4.096 48.1309 3.424C48.5362 2.752 49.0695 2.22933 49.7309 1.856C50.3922 1.48267 51.1122 1.296 51.8909 1.296C52.8509 1.296 53.6402 1.46667 54.2589 1.808C54.3975 1.89333 54.4669 2.01067 54.4669 2.16C54.4669 2.256 54.4295 2.34667 54.3549 2.432C54.2802 2.51733 54.1842 2.56 54.0669 2.56C54.0029 2.56 53.9389 2.544 53.8749 2.512ZM60.7614 1.296C61.5187 1.296 62.2067 1.48267 62.8254 1.856C63.4547 2.22933 63.9507 2.752 64.3134 3.424C64.6867 4.08533 64.8734 4.85333 64.8734 5.728C64.8734 6.56 64.708 7.312 64.3774 7.984C64.0574 8.64533 63.588 9.17333 62.9694 9.568C62.3614 9.952 61.6254 10.144 60.7614 10.144C59.9507 10.144 59.2307 9.952 58.6014 9.568C57.972 9.17333 57.476 8.64533 57.1134 7.984C56.7614 7.32267 56.5854 6.58667 56.5854 5.776C56.5854 4.88 56.7614 4.096 57.1134 3.424C57.4654 2.752 57.9507 2.22933 58.5694 1.856C59.1987 1.48267 59.9294 1.296 60.7614 1.296ZM60.7614 2.096C60.0894 2.096 59.4974 2.256 58.9854 2.576C58.484 2.88533 58.0894 3.31733 57.8014 3.872C57.524 4.416 57.3854 5.05067 57.3854 5.776C57.3854 6.42667 57.524 7.024 57.8014 7.568C58.0894 8.112 58.4894 8.544 59.0014 8.864C59.5134 9.184 60.1 9.344 60.7614 9.344C61.4654 9.344 62.0627 9.184 62.5534 8.864C63.0547 8.544 63.4334 8.112 63.6894 7.568C63.9454 7.01333 64.0734 6.4 64.0734 5.728C64.0734 5.024 63.924 4.4 63.6254 3.856C63.3374 3.312 62.9427 2.88533 62.4414 2.576C61.94 2.256 61.38 2.096 60.7614 2.096ZM77.1896 10.032C77.0936 10.032 77.0083 10 76.9336 9.936C76.859 9.872 76.811 9.78667 76.7896 9.68C76.715 9.072 76.619 8.384 76.5016 7.616C76.3843 6.848 76.2563 6.05333 76.1176 5.232C75.979 4.41067 75.835 3.616 75.6856 2.848C75.3336 3.56267 74.971 4.30933 74.5976 5.088C74.235 5.856 73.8883 6.61333 73.5576 7.36C73.227 8.10667 72.9283 8.80533 72.6616 9.456C72.587 9.63733 72.4696 9.728 72.3096 9.728C72.1176 9.728 71.9896 9.65333 71.9256 9.504C71.6163 8.84267 71.275 8.128 70.9016 7.36C70.5283 6.58133 70.155 5.80267 69.7816 5.024C69.419 4.24533 69.0776 3.52533 68.7576 2.864C68.6723 3.42933 68.5816 4.02667 68.4856 4.656C68.4003 5.28533 68.315 5.90933 68.2296 6.528C68.155 7.14667 68.0803 7.728 68.0056 8.272C67.9416 8.816 67.8883 9.28533 67.8456 9.68C67.835 9.776 67.787 9.86133 67.7016 9.936C67.627 10 67.5363 10.032 67.4296 10.032C67.323 10.032 67.2323 9.99467 67.1576 9.92C67.083 9.83467 67.0456 9.73333 67.0456 9.616C67.0456 9.59467 67.0616 9.44 67.0936 9.152C67.1363 8.8 67.195 8.32 67.2696 7.712C67.3443 7.104 67.4296 6.44267 67.5256 5.728C67.6216 5.00267 67.723 4.28267 67.8296 3.568C67.9363 2.85333 68.0376 2.208 68.1336 1.632C68.155 1.536 68.203 1.456 68.2776 1.392C68.363 1.328 68.4536 1.296 68.5496 1.296C68.6776 1.296 68.7736 1.33867 68.8376 1.424C68.9443 1.53067 69.0296 1.65867 69.0936 1.808C69.3923 2.40533 69.7176 3.07733 70.0696 3.824C70.4323 4.56 70.8056 5.31733 71.1896 6.096C71.5736 6.87467 71.9363 7.62133 72.2776 8.336C72.587 7.632 72.9176 6.88533 73.2696 6.096C73.6323 5.296 74.0003 4.50133 74.3736 3.712C74.7576 2.912 75.131 2.17067 75.4936 1.488C75.579 1.34933 75.7016 1.28 75.8616 1.28C75.9576 1.28 76.0483 1.312 76.1336 1.376C76.219 1.42933 76.267 1.504 76.2776 1.6C76.4056 2.22933 76.5283 2.90133 76.6456 3.616C76.7736 4.32 76.891 4.99733 76.9976 5.648C77.1043 6.29867 77.1896 6.86933 77.2536 7.36C77.3283 7.84 77.3816 8.17067 77.4136 8.352C77.499 8.87467 77.547 9.21067 77.5576 9.36C77.579 9.50933 77.5896 9.6 77.5896 9.632C77.5896 9.73867 77.5523 9.83467 77.4776 9.92C77.403 9.99467 77.307 10.032 77.1896 10.032ZM81.3386 9.6C81.3386 9.70667 81.3013 9.80267 81.2266 9.888C81.152 9.96267 81.056 10 80.9386 10C80.832 10 80.736 9.96267 80.6506 9.888C80.576 9.80267 80.5386 9.70667 80.5386 9.6V1.84C80.5386 1.72267 80.576 1.62667 80.6506 1.552C80.736 1.47733 80.832 1.44 80.9386 1.44C81.056 1.44 81.152 1.47733 81.2266 1.552C81.3013 1.62667 81.3386 1.72267 81.3386 1.84V9.6ZM90.7604 9.84C90.3977 9.34933 89.9764 8.8 89.4964 8.192C89.027 7.584 88.5417 6.96533 88.0404 6.336C87.539 5.696 87.0537 5.07733 86.5844 4.48C86.1257 3.88267 85.715 3.35467 85.3524 2.896V9.6C85.3524 9.70667 85.315 9.80267 85.2404 9.888C85.1657 9.96267 85.0697 10 84.9524 10C84.8457 10 84.7497 9.96267 84.6644 9.888C84.5897 9.80267 84.5524 9.70667 84.5524 9.6V1.84C84.5524 1.72267 84.5897 1.62667 84.6644 1.552C84.7497 1.47733 84.8404 1.44 84.9364 1.44C85.1497 1.44 85.2937 1.49333 85.3684 1.6C85.635 1.952 85.9817 2.40533 86.4084 2.96C86.835 3.504 87.299 4.10133 87.8004 4.752C88.3124 5.392 88.8244 6.04267 89.3364 6.704C89.859 7.35467 90.339 7.968 90.7764 8.544V1.84C90.7764 1.72267 90.8137 1.62667 90.8884 1.552C90.9737 1.47733 91.0697 1.44 91.1764 1.44C91.2937 1.44 91.3897 1.47733 91.4644 1.552C91.539 1.62667 91.5764 1.72267 91.5764 1.84V9.6C91.5764 9.70667 91.539 9.80267 91.4644 9.888C91.3897 9.96267 91.299 10 91.1924 10C90.979 10 90.835 9.94667 90.7604 9.84ZM101.525 9.296C101.13 9.54133 100.682 9.744 100.181 9.904C99.69 10.064 99.114 10.144 98.4526 10.144C97.5353 10.144 96.7513 9.952 96.1006 9.568C95.4606 9.17333 94.97 8.64533 94.6286 7.984C94.2873 7.32267 94.1166 6.58667 94.1166 5.776C94.1166 4.88 94.3033 4.096 94.6766 3.424C95.0606 2.752 95.5833 2.22933 96.2446 1.856C96.906 1.48267 97.658 1.296 98.5006 1.296C98.97 1.296 99.4073 1.344 99.8126 1.44C100.229 1.52533 100.618 1.632 100.981 1.76C101.151 1.824 101.237 1.94667 101.237 2.128C101.237 2.23467 101.199 2.33067 101.125 2.416C101.061 2.49067 100.965 2.528 100.837 2.528C100.805 2.528 100.757 2.51733 100.693 2.496C100.383 2.37867 100.047 2.28267 99.6846 2.208C99.322 2.13333 98.9273 2.096 98.5006 2.096C97.8073 2.096 97.1886 2.25067 96.6446 2.56C96.1113 2.86933 95.69 3.30133 95.3806 3.856C95.0713 4.4 94.9166 5.04 94.9166 5.776C94.9166 6.43733 95.0553 7.04 95.3326 7.584C95.61 8.11733 96.01 8.544 96.5326 8.864C97.066 9.184 97.706 9.344 98.4526 9.344C98.9753 9.344 99.434 9.29067 99.8286 9.184C100.234 9.06667 100.602 8.91733 100.933 8.736V6.416H98.7086C98.602 6.416 98.506 6.37867 98.4206 6.304C98.346 6.21867 98.3086 6.12267 98.3086 6.016C98.3086 5.89867 98.346 5.80267 98.4206 5.728C98.506 5.65333 98.602 5.616 98.7086 5.616H101.157C101.359 5.616 101.503 5.648 101.589 5.712C101.685 5.76533 101.733 5.86667 101.733 6.016V8.896C101.733 9.07733 101.663 9.21067 101.525 9.296ZM113.561 2.496C113.305 2.38933 113.022 2.304 112.713 2.24C112.414 2.176 112.019 2.144 111.529 2.144C110.985 2.144 110.553 2.28267 110.233 2.56C109.913 2.82667 109.753 3.13067 109.753 3.472C109.753 3.81333 109.902 4.12267 110.201 4.4C110.499 4.67733 111.081 4.91733 111.945 5.12C112.713 5.29067 113.305 5.50933 113.721 5.776C114.147 6.04267 114.446 6.34667 114.617 6.688C114.787 7.01867 114.873 7.38667 114.873 7.792C114.873 8.18667 114.771 8.56533 114.569 8.928C114.377 9.28 114.057 9.57333 113.609 9.808C113.171 10.032 112.585 10.144 111.849 10.144C110.803 10.144 109.838 9.89867 108.953 9.408C108.814 9.32267 108.745 9.20533 108.745 9.056C108.745 8.96 108.782 8.86933 108.857 8.784C108.931 8.69867 109.027 8.656 109.145 8.656C109.209 8.656 109.273 8.672 109.337 8.704C110.094 9.13067 110.931 9.344 111.849 9.344C112.574 9.344 113.123 9.19467 113.497 8.896C113.881 8.58667 114.073 8.21867 114.073 7.792C114.073 7.344 113.891 6.97067 113.529 6.672C113.177 6.37333 112.595 6.12267 111.785 5.92C111.027 5.728 110.441 5.50933 110.025 5.264C109.619 5.01867 109.337 4.74133 109.177 4.432C109.027 4.12267 108.953 3.78133 108.953 3.408C108.953 3.06667 109.049 2.74133 109.241 2.432C109.443 2.112 109.737 1.85067 110.121 1.648C110.505 1.44533 110.974 1.344 111.529 1.344C112.115 1.344 112.585 1.392 112.937 1.488C113.299 1.57333 113.678 1.696 114.073 1.856C114.243 1.92 114.329 2.04267 114.329 2.224C114.329 2.33067 114.286 2.42667 114.201 2.512C114.126 2.58667 114.035 2.624 113.929 2.624C113.907 2.624 113.875 2.61867 113.833 2.608C113.79 2.58667 113.699 2.54933 113.561 2.496ZM120.965 1.296C121.722 1.296 122.41 1.48267 123.029 1.856C123.658 2.22933 124.154 2.752 124.517 3.424C124.89 4.08533 125.077 4.85333 125.077 5.728C125.077 6.56 124.911 7.312 124.581 7.984C124.261 8.64533 123.791 9.17333 123.173 9.568C122.565 9.952 121.829 10.144 120.965 10.144C120.154 10.144 119.434 9.952 118.805 9.568C118.175 9.17333 117.679 8.64533 117.317 7.984C116.965 7.32267 116.789 6.58667 116.789 5.776C116.789 4.88 116.965 4.096 117.317 3.424C117.669 2.752 118.154 2.22933 118.773 1.856C119.402 1.48267 120.133 1.296 120.965 1.296ZM120.965 2.096C120.293 2.096 119.701 2.256 119.189 2.576C118.687 2.88533 118.293 3.31733 118.005 3.872C117.727 4.416 117.589 5.05067 117.589 5.776C117.589 6.42667 117.727 7.024 118.005 7.568C118.293 8.112 118.693 8.544 119.205 8.864C119.717 9.184 120.303 9.344 120.965 9.344C121.669 9.344 122.266 9.184 122.757 8.864C123.258 8.544 123.637 8.112 123.892 7.568C124.149 7.01333 124.277 6.4 124.277 5.728C124.277 5.024 124.127 4.4 123.829 3.856C123.541 3.312 123.146 2.88533 122.645 2.576C122.143 2.256 121.583 2.096 120.965 2.096ZM131.355 1.296C132.112 1.296 132.8 1.48267 133.419 1.856C134.048 2.22933 134.544 2.752 134.907 3.424C135.28 4.08533 135.467 4.85333 135.467 5.728C135.467 6.56 135.302 7.312 134.971 7.984C134.651 8.64533 134.182 9.17333 133.563 9.568C132.955 9.952 132.219 10.144 131.355 10.144C130.544 10.144 129.824 9.952 129.195 9.568C128.566 9.17333 128.07 8.64533 127.707 7.984C127.355 7.32267 127.179 6.58667 127.179 5.776C127.179 4.88 127.355 4.096 127.707 3.424C128.059 2.752 128.544 2.22933 129.163 1.856C129.792 1.48267 130.523 1.296 131.355 1.296ZM131.355 2.096C130.683 2.096 130.091 2.256 129.579 2.576C129.078 2.88533 128.683 3.31733 128.395 3.872C128.118 4.416 127.979 5.05067 127.979 5.776C127.979 6.42667 128.118 7.024 128.395 7.568C128.683 8.112 129.083 8.544 129.595 8.864C130.107 9.184 130.694 9.344 131.355 9.344C132.059 9.344 132.656 9.184 133.147 8.864C133.648 8.544 134.027 8.112 134.283 7.568C134.539 7.01333 134.667 6.4 134.667 5.728C134.667 5.024 134.518 4.4 134.219 3.856C133.931 3.312 133.536 2.88533 133.035 2.576C132.534 2.256 131.974 2.096 131.355 2.096ZM144.214 9.84C143.851 9.34933 143.43 8.8 142.95 8.192C142.48 7.584 141.995 6.96533 141.494 6.336C140.992 5.696 140.507 5.07733 140.038 4.48C139.579 3.88267 139.168 3.35467 138.806 2.896V9.6C138.806 9.70667 138.768 9.80267 138.694 9.888C138.619 9.96267 138.523 10 138.406 10C138.299 10 138.203 9.96267 138.118 9.888C138.043 9.80267 138.006 9.70667 138.006 9.6V1.84C138.006 1.72267 138.043 1.62667 138.118 1.552C138.203 1.47733 138.294 1.44 138.39 1.44C138.603 1.44 138.747 1.49333 138.822 1.6C139.088 1.952 139.435 2.40533 139.862 2.96C140.288 3.504 140.752 4.10133 141.254 4.752C141.766 5.392 142.278 6.04267 142.79 6.704C143.312 7.35467 143.792 7.968 144.23 8.544V1.84C144.23 1.72267 144.267 1.62667 144.342 1.552C144.427 1.47733 144.523 1.44 144.63 1.44C144.747 1.44 144.843 1.47733 144.918 1.552C144.992 1.62667 145.03 1.72267 145.03 1.84V9.6C145.03 9.70667 144.992 9.80267 144.918 9.888C144.843 9.96267 144.752 10 144.646 10C144.432 10 144.288 9.94667 144.214 9.84Z" fill="#BCBCBC"/>
</svg>
